<svg xmlns="http://www.w3.org/2000/svg" id="Layer_1" viewBox="0 0 512 512"><defs><style>      .cls-1 {        fill: #00df81;      }    </style></defs><path class="cls-1" d="M207.17,364.47c2.43,0,4.54,0,6.64,0,34.12.03,68.23,0,102.35.11,16.48.05,29.59,11.42,32.21,27.66,2.4,14.92-6.74,30.18-21.54,35.16-3.95,1.33-8.36,1.75-12.56,1.77-30.03.18-60.06.14-90.09.18-8.63.01-12.88,2.9-12.77,8.61.11,5.57,4,8.11,12.55,8.21,24.7.28,49.39.58,74.09.83,18.28.18,32.39,13.72,32.83,31.56.44,17.96-13.4,32.84-31.79,33.17-23.09.42-46.2.24-69.3.11-8.35-.05-13.47-4.84-13.55-11.92-.09-7.32,5.14-12.16,13.79-12.22,21.5-.14,43-.08,64.5-.11,1.6,0,3.22.13,4.79-.09,4.46-.63,7.21-3.39,7.43-7.76.22-4.33-2.04-7.51-6.54-8.44-1.89-.39-3.87-.45-5.81-.47-24.34-.2-48.68-.3-73.02-.57-18.62-.2-32.13-12.05-33.85-29.46-1.83-18.44,11.74-34.54,30.23-35.43,8.69-.42,17.41-.15,26.12-.16,22.92-.03,45.84-.02,68.77-.07,1.93,0,3.92-.09,5.79-.53,4.21-1,6.28-4,6.19-8.18-.09-4.27-2.67-6.88-6.71-7.85-1.69-.41-3.53-.24-5.3-.24-34.65-.02-69.3-.02-103.95-.04-17.39-.01-26.13-8.81-26.15-26.28,0-1.07-.08-2.14.01-3.2,1.01-12.12-3.98-21.07-13.73-28.19-20.2-14.76-35.14-33.9-45.74-56.56-27.24-58.25-9.85-132.18,40.61-172.12,49.38-39.08,112.37-44.45,166.38-12.64,42.07,24.78,66.13,62.53,70.8,111.09,5.25,54.5-15.34,98.55-58.49,132.06-8.43,6.54-18.48,3.63-20.55-5.78-1.33-6.04,1.99-9.89,6.19-13.7,8-7.25,16.55-14.18,23.25-22.54,57.4-71.51,16.48-179.55-73.78-195.46-79.39-13.99-149.65,49.91-142.77,130.52,2.95,34.61,18.85,63.03,46.3,84.39,11.72,9.12,21.66,19.08,24.38,34.22,1.15,6.41,1.18,13.03,1.79,20.36Z"></path><path class="cls-1" d="M442.24,225.12c-6.02,0-12.05.11-18.07-.03-6.67-.15-11.05-4.01-11.24-9.65-.19-5.53,4.11-10.01,10.7-10.15,12.4-.27,24.8-.27,37.2,0,6.72.15,10.76,4.41,10.61,10.12-.14,5.72-4.38,9.51-11.13,9.66-6.02.14-12.05.03-18.07.03Z"></path><path class="cls-1" d="M265.6,28.95c0,5.86.1,11.72-.02,17.57-.15,6.81-3.87,11.02-9.62,11.19-5.75.16-10.01-3.85-10.16-10.58-.28-12.24-.3-24.5.03-36.74.18-6.75,4.52-10.65,10.35-10.37,5.56.26,9.23,4.34,9.39,10.83.16,6.03.03,12.07.03,18.1Z"></path><path class="cls-1" d="M69.51,225.13c-5.85,0-11.71.09-17.56-.02-7.04-.14-11.42-4.05-11.4-9.96.02-5.69,4.13-9.72,10.94-9.86,11.88-.24,23.77-.23,35.65,0,7.07.13,11.29,4.3,11.12,10.2-.17,5.88-4.54,9.53-11.73,9.64-5.67.08-11.35.02-17.03.02Z"></path><path class="cls-1" d="M411.93,68.08c-1.25,3.26-1.49,5.68-2.82,7.07-9.51,10.02-19.11,19.96-28.97,29.63-3.08,3.02-7.2,2.81-10.85.47-3.63-2.33-5.24-5.86-4.3-10.07.44-1.97,1.57-4.03,2.97-5.5,8.56-8.99,17.24-17.87,25.97-26.7,3.13-3.17,7.24-4.66,11.11-2.33,2.85,1.71,4.75,5.03,6.89,7.43Z"></path><path class="cls-1" d="M147.27,95.17c.03,9.21-7.86,13.96-14.34,10.33-1.52-.85-2.9-2.05-4.13-3.3-7.96-8.09-15.9-16.2-23.76-24.39-5.08-5.29-5.43-11.4-1.08-15.5,4.21-3.97,10.1-3.47,15.07,1.53,8.12,8.18,16.22,16.39,24.1,24.8,2.07,2.21,3.32,5.19,4.14,6.53Z"></path></svg>