<svg xmlns="http://www.w3.org/2000/svg" id="Layer_1" viewBox="0 0 512 512"><defs><style>      .cls-1 {        fill: #00df81;      }    </style></defs><g id="QlnpI2.tif"><g><path class="cls-1" d="M0,218.68c3.01-4.35,7.14-5.75,12.36-5.42,5.63.36,11.31.08,16.71.08,3.09-11.44,6.04-22.36,9.12-33.77-5.26-3.05-10.78-6.2-16.25-9.44-6.36-3.77-7.47-7.72-3.77-14.18,10.68-18.63,21.42-37.24,32.2-55.81,3.75-6.46,7.71-7.51,14.18-3.94,5.43,3,10.8,6.11,16.2,9.17.13.08.35,0-.76,0,8.59-8.74,16.54-16.82,25.03-25.46-2.47-4.29-5.69-9.77-8.79-15.32-3.64-6.49-2.63-10.38,3.86-14.15,18.57-10.8,37.17-21.53,55.79-32.23,6.48-3.72,10.39-2.67,14.19,3.7,3.18,5.33,6.23,10.73,9.44,16.29,11.13-3,22.18-5.98,33.79-9.12,0-5.88-.03-12.07,0-18.26.04-7.77,2.93-10.77,10.48-10.81,10.13-.05,20.26-.06,30.39,0,7.25.04,10.3,3.11,10.31,10.47.04,27.19.04,54.37,0,81.56-.01,7.25-3.06,10.17-10.45,10.37-77.16,2.12-138.23,55.86-150.2,132.17-12.29,78.42,43.02,156.84,121.38,171.74,9.38,1.78,19,2.43,28.54,3.14,7.71.57,10.72,3.13,10.73,10.71.04,27.01-.09,54.02.11,81.03.03,4.82-2.04,7.98-5.43,10.77h-40.53c-4.36-3.01-5.76-7.13-5.42-12.36.37-5.63.08-11.31.08-16.76-11.55-3.11-22.59-6.08-33.79-9.1-3.19,5.5-6.24,10.9-9.42,16.23-3.82,6.4-7.75,7.49-14.18,3.79-18.63-10.69-37.23-21.43-55.8-32.23-6.64-3.86-7.55-7.75-3.67-14.62,3.04-5.38,6.15-10.73,8.56-14.91-8.47-8.58-16.44-16.65-24.88-25.2-4.52,2.6-10,5.82-15.56,8.92-6.45,3.6-10.44,2.56-14.19-3.89-10.79-18.58-21.52-37.18-32.2-55.82-3.72-6.48-2.62-10.4,3.76-14.18,5.47-3.23,10.99-6.39,16.26-9.45-3.08-11.4-6.04-22.32-9.13-33.76-5.4,0-11.07-.28-16.7.08-5.23.34-9.35-1.08-12.37-5.42v-74.66ZM61.89,397.63c5.8-3.36,10.83-6.36,15.95-9.2,5.25-2.92,8.49-2.14,12.76,2.2,10.08,10.24,20.22,20.43,30.48,30.49,4.72,4.63,5.42,7.75,2.12,13.64-2.83,5.05-5.74,10.06-8.79,15.39,14.99,8.65,29.5,17.02,44.26,25.54,3.21-5.55,6.08-10.63,9.07-15.65,3.31-5.55,6.3-6.41,12.48-4.68,13.64,3.82,27.33,7.51,41.06,11,6.97,1.77,9.05,4.04,9.08,11.48.02,5.61,0,11.22,0,16.84h16.8v-68.09c-45.81-3.27-84.91-20.95-116.14-54.66-31.38-33.87-46.62-74.25-45.6-120.4,2.05-92.79,78.42-163.94,161.59-166.35V17.38h-16.1c-.23.6-.46.91-.46,1.22-.05,5.15-.07,10.3-.1,15.46-.04,7.65-2.2,9.88-9.5,11.7-13.4,3.34-26.74,6.95-40.02,10.74-6.82,1.94-9.76,1.16-13.33-4.88-2.97-5.02-5.85-10.09-8.87-15.31-14.96,8.66-29.5,17.07-44.25,25.61,3.15,5.49,6.01,10.39,8.78,15.32,3.32,5.91,2.64,9.02-2.08,13.64-10.14,9.93-20.2,19.95-30.12,30.09-4.83,4.93-7.86,5.6-14.06,2.08-4.9-2.78-9.77-5.6-15.06-8.64-8.61,14.91-17,29.44-25.55,44.25,5.56,3.23,10.79,6.19,15.95,9.29,5.22,3.14,6.07,6.19,4.41,12.13-3.84,13.82-7.56,27.68-11.13,41.58-1.65,6.42-4.08,8.67-10.7,8.73-5.8.05-11.6.01-17.4.01v51.2c5.88,0,11.37-.02,16.86,0,7.31.04,9.6,2.23,11.36,9.23,3.36,13.4,6.92,26.75,10.72,40.03,2.04,7.13,1.31,9.96-5.04,13.71-4.96,2.93-9.95,5.81-15.04,8.78,8.68,15.01,17.01,29.42,25.59,44.26Z"></path><path class="cls-1" d="M392.5,256.05c-.02,75.3-61.53,136.65-136.84,136.49-75.09-.17-136.23-61.48-136.2-136.58.03-75.33,61.48-136.62,136.83-136.47,75.1.15,136.23,61.44,136.22,136.55ZM207.05,147.56c3.59,7.21,6.86,14.31,10.66,21.11,1.36,2.44,3.65,4.79,6.09,6.11,8.58,4.64,17.44,8.75,26.12,13.2,6.39,3.28,7.69,7.78,3.99,14.03-7.87,13.29-15.91,26.48-23.77,39.78-2.44,4.13-5.79,5.86-10.55,5.73-7.1-.19-14.22.16-21.32-.14-3.53-.15-5.06,1.14-5.93,4.39-1.15,4.28-2.71,8.44-4.14,12.64-2.49,7.31-4.32,8.64-11.97,8.65-12.59.02-25.18,0-39.12,0,3.34,11.35,6.46,21.94,9.68,32.87,2.77-.82,4.45-1.27,6.1-1.82,12.46-4.14,24.97-8.12,37.32-12.54,5.24-1.88,9.41-1.34,13.8,2.15,8.47,6.71,17.26,13.02,26.1,19.63,1.57-1.19,3-2.21,4.37-3.31,10.55-8.42,21.08-16.88,31.65-25.28,5.69-4.52,9.23-4.33,14.41.8,7.58,7.5,15.3,14.87,22.5,22.73,2.17,2.37,3.69,6.08,3.95,9.31.58,7.24.22,14.56.17,21.84-.04,6.47-1.92,8.9-8.2,10.54-8.54,2.24-17.1,4.39-25.6,6.57v17.52c34.15-5.64,60.8-22.42,80.97-50.35-9.04-9.02-17.88-17.75-26.61-26.59-4.31-4.36-4.61-7.69-1.29-12.83,3.95-6.11,8.08-12.11,12.04-18.22.83-1.28,1.94-2.99,1.68-4.25-1.38-6.68-3.15-13.28-4.89-20.29-5.81,1.88-10.88,3.39-15.87,5.16-4.71,1.67-8.28.35-11.19-3.53-7.97-10.67-15.94-21.35-24-31.96-2.46-3.24-2.99-6.49-1.91-10.47,2.61-9.58,4.81-19.28,7.25-28.91,2.09-8.25,4-9.67,12.62-9.68,8.59,0,17.17,0,26.64,0-31.95-26.77-82.65-33.78-121.77-14.59ZM136.37,256.01c6.46,0,12.27.04,18.09,0,6.02-.05,13.56,1.99,17.64-.87,4.03-2.82,4.64-10.6,6.64-16.25,2.54-7.18,4.27-8.45,12.09-8.46,7.63-.01,15.27.1,22.9-.09,1.5-.04,3.63-.8,4.34-1.93,5.83-9.29,11.38-18.74,17.27-28.57-7.51-3.78-14.51-7.59-21.75-10.85-4.83-2.18-7.94-5.44-10.13-10.23-3.57-7.82-7.66-15.4-11.73-23.48-35.49,24.61-53.88,57.62-55.36,100.75ZM255.98,375.66c0-8.41-.03-16.02,0-23.63.03-6.9,1.8-9.14,8.44-10.85,8.52-2.19,17.05-4.36,25.68-6.57,0-3.52.21-6.55-.07-9.53-.23-2.51-.28-5.62-1.74-7.32-4.85-5.63-10.31-10.75-15.75-16.28-11.84,9.46-23.33,18.67-34.85,27.84-5.94,4.72-8.47,4.72-14.64.11-8.39-6.28-16.74-12.61-25.19-18.81-1.31-.96-3.35-2.2-4.58-1.82-12.31,3.87-24.52,8.06-37.43,12.39,24.58,34.93,57.4,52.84,100.12,54.47ZM362.8,308.7c20.76-40.56,14.83-93.76-13.49-126.99-1.01-1.19-2.83-2.36-4.29-2.39-13.13-.18-26.26-.11-39.64-.11-1.86,7.28-3.83,14.25-5.33,21.32-.34,1.59.51,3.81,1.52,5.23,4.86,6.79,10.08,13.31,14.91,20.11,1.81,2.55,3.53,2.83,6.28,1.78,4.63-1.78,9.39-3.24,14.12-4.74,7.25-2.3,11.16-.2,13.07,7.17,2.62,10.13,5.42,20.24,7.43,30.5.64,3.25-.23,7.35-1.78,10.36-2.74,5.33-6.68,10.04-9.77,15.22-.72,1.21-.75,3.88.09,4.81,5.31,5.94,10.96,11.57,16.88,17.71Z"></path><path class="cls-1" d="M281.84,426.76v-17.09c14.61,0,28.96-.17,43.31.1,4.44.08,6.59,3.47,7.75,7.62,4.47,15.89,9.07,31.73,13.64,47.59.39,1.36.85,2.69,1.37,4.34,6.11,0,12.16.3,18.14-.2,1.61-.13,3.41-2.46,4.45-4.18,6.55-10.75,19.32-15.38,30.96-11.01,11.61,4.36,18.64,16.77,16.2,28.6-2.59,12.57-13.38,21.4-25.94,20.86-9.61-.42-17.01-5-21.47-13.5-1.52-2.9-3.21-3.62-6.15-3.55-7.11.16-14.22-.03-21.33.08-5.41.08-8.6-2.39-10.06-7.59-4.87-17.24-9.85-34.45-14.9-52.08h-35.97ZM400.99,478.28c.24-4.58-3.47-8.67-8.07-8.9-4.58-.23-8.66,3.47-8.9,8.07-.24,4.58,3.47,8.67,8.07,8.91,4.57.24,8.67-3.48,8.9-8.08Z"></path><path class="cls-1" d="M281.8,102.42v-17.07c8.15,0,16.1-.22,24.03.1,3.63.14,5.3-1.19,6.82-4.34,6.49-13.42,13.41-26.64,19.88-40.07,2.4-4.97,5.79-7.29,11.3-6.94,3.89.25,7.82-.08,11.73.08,7.22.29,13.13.29,17.86-7.8,5.54-9.48,18.28-11.56,28.61-7.38,10.44,4.22,16.89,14.63,16,25.81-.86,10.85-8.73,19.98-19.53,22.66-10.67,2.64-21.98-1.72-27.49-11.41-2.15-3.78-4.62-4.39-8.58-5.07-12.4-2.12-18.94,2.94-23.23,14.4-3.96,10.58-10,20.38-14.95,30.61-2.2,4.54-5.47,6.56-10.54,6.47-10.46-.19-20.93-.06-31.9-.06ZM392.42,51.19c4.62.05,8.52-3.78,8.58-8.41.05-4.61-3.78-8.52-8.4-8.58-4.63-.06-8.54,3.77-8.58,8.39-.04,4.61,3.8,8.54,8.41,8.59Z"></path><path class="cls-1" d="M367.16,153.62v-17.06c5.69,0,11.18.32,16.59-.15,2.22-.19,4.97-1.56,6.29-3.29,4.09-5.34,7.69-11.06,11.31-16.75,2.42-3.81,5.62-5.53,10.18-5.45,9.58.17,19.17-.07,28.75.12,3.33.06,5.23-.69,6.97-3.95,5.59-10.47,17.26-15.23,28.48-12.27,11.27,2.98,19.09,13.03,19.13,24.58.04,11.76-7.89,21.91-19.45,24.87-11.22,2.87-22.67-2.03-28.35-12.62-1.49-2.77-3.02-3.75-6.06-3.67-7.63.2-15.27.23-22.89-.01-3.09-.1-4.81,1.03-6.38,3.55-3.57,5.72-7.49,11.21-11.13,16.88-2.32,3.61-5.38,5.36-9.73,5.29-7.78-.14-15.55-.04-23.72-.04ZM469.04,127.98c4.59.15,8.6-3.63,8.75-8.24.15-4.6-3.62-8.6-8.23-8.74-4.6-.15-8.6,3.62-8.74,8.23-.15,4.6,3.62,8.6,8.23,8.75Z"></path><path class="cls-1" d="M375.54,366.94v-16.82c9.2,0,18.38-.43,27.46.3,2.32.19,5.21,3.65,6.36,6.27,4.59,10.37,8.61,20.99,12.8,31.53.91,2.28,1.39,5.09,4.83,4.29,3.86-.9,8.49,2.45,11.52-3.42,6.08-11.81,19.26-16.47,31.29-11.9,11.39,4.32,18.39,16.44,16.23,28.1-2.36,12.73-13.35,21.88-26.07,21.32-9.6-.42-16.99-5-21.45-13.5-1.52-2.89-3.19-3.69-6.14-3.55-4.08.19-8.17-.11-12.25.09-5.61.27-8.85-2.32-10.81-7.49-4.03-10.6-8.48-21.05-12.53-31.65-1.06-2.78-2.47-3.78-5.43-3.64-5.1.25-10.22.07-15.81.07ZM460.67,392.58c-4.62.05-8.45,3.96-8.4,8.58.05,4.62,3.96,8.46,8.57,8.4,4.61-.05,8.45-3.98,8.4-8.58-.05-4.62-3.97-8.45-8.58-8.4Z"></path><path class="cls-1" d="M409.79,264.55v-17.07c6.43,0,12.75,0,19.07,0,9.41,0,18.82-.12,28.23.06,3.5.07,5.51-.75,7.37-4.19,6.07-11.22,19.38-15.71,31.14-11.14,11.37,4.42,18.24,16.57,15.97,28.22-2.49,12.74-13.51,21.77-26.23,21.1-9.59-.51-16.9-5.16-21.35-13.67-1.38-2.64-2.89-3.4-5.7-3.38-15.97.12-31.94.06-48.51.06ZM494.85,256.23c.13-4.61-3.65-8.58-8.27-8.71-4.61-.12-8.58,3.65-8.71,8.27-.13,4.6,3.65,8.59,8.27,8.71,4.59.13,8.58-3.66,8.71-8.27Z"></path></g></g></svg>