<svg xmlns="http://www.w3.org/2000/svg" id="Layer_1" viewBox="0 0 512 512"><defs><style>      .cls-1 {        fill: #00df81;      }    </style></defs><g id="_x34_1UnGn.tif"><g><path class="cls-1" d="M253.36,512c-17.39-11.4-34.71-22.89-52.23-34.08-2.42-1.54-5.83-2.33-8.72-2.2-18.8.83-37.58,1.97-56.37,3.08-6.25.37-10.34-2.32-13.11-7.9-8.3-16.68-16.69-33.31-25.35-49.8-1.42-2.7-4.03-5.28-6.73-6.7-16.2-8.49-32.52-16.78-48.96-24.81-6.39-3.12-9.01-7.6-8.54-14.69,1.25-18.78,2.22-37.57,3.05-56.37.11-2.43-.73-5.28-2.05-7.34-10.08-15.68-20.25-31.31-30.69-46.75-3.98-5.89-4.06-11.05-.04-16.96,10.48-15.42,20.71-31.01,30.81-46.68,1.4-2.17,2.19-5.22,2.07-7.81-.81-18.3-1.71-36.6-3.05-54.87-.58-7.9,2.2-12.78,9.37-16.23,16.48-7.94,32.75-16.32,48.98-24.77,2.29-1.19,4.48-3.43,5.68-5.73,8.59-16.53,17.03-33.14,25.25-49.86,3.14-6.4,7.74-8.87,14.8-8.39,18.94,1.3,37.9,2.31,56.86,3.22,2.1.1,4.56-.79,6.37-1.96,13.14-8.49,26.15-17.18,39.22-25.78C244.4,5.7,248.89,2.87,253.36,0c2,0,4,0,6,0,17.47,11.54,34.92,23.11,52.44,34.57,1.57,1.03,3.64,1.96,5.43,1.88,19.13-.89,38.25-1.94,57.37-3.07,8.35-.49,11.4,1.03,15.16,8.44,8.35,16.46,16.56,33.01,25.11,49.36,1.34,2.56,3.84,5.02,6.41,6.36,16.66,8.69,33.47,17.11,50.28,25.51,5.18,2.59,7.85,6.49,7.51,12.33-1.09,18.95-2.29,37.9-3.14,56.86-.13,2.9.63,6.32,2.17,8.74,10.91,17.11,22.13,34.03,33.26,51.01v9c-.72.84-1.54,1.62-2.15,2.54-10.38,15.67-20.85,31.29-30.99,47.12-1.64,2.57-2.65,6.11-2.52,9.15.75,18.46,1.76,36.91,3,55.35.47,6.89-2.02,11.29-8.24,14.34-16.42,8.05-32.74,16.31-48.93,24.81-2.83,1.49-5.58,4.19-7.07,7.02-8.59,16.33-16.92,32.8-25.07,49.36-3.08,6.25-7.64,8.55-14.45,8.09-19.1-1.29-38.21-2.32-57.33-3.31-1.67-.09-3.66.46-5.07,1.38-17.77,11.64-35.47,23.41-53.18,35.15h-6ZM340.58,455.36s0,.01,0,.02c8.98.52,17.97.88,26.93,1.63,3.66.3,5.59-.75,7.26-4.18,7.59-15.54,15.34-31.03,23.51-46.27,1.83-3.41,5.11-6.67,8.53-8.49,15.26-8.15,30.75-15.87,46.3-23.47,3.41-1.67,4.37-3.56,4.13-7.25-1.17-17.45-2.25-34.91-2.82-52.39-.12-3.85,1.16-8.31,3.22-11.59,9.3-14.8,19.05-29.32,28.81-43.82,1.76-2.61,1.78-4.39.02-7.02-9.77-14.5-19.51-29.02-28.82-43.81-2.07-3.29-3.36-7.74-3.23-11.6.57-17.64,1.7-35.27,2.83-52.89.21-3.29-.62-5-3.71-6.51-15.68-7.69-31.32-15.49-46.73-23.72-3.41-1.82-6.7-5.08-8.52-8.49-8.24-15.4-16.02-31.04-23.73-46.72-1.5-3.06-3.22-3.97-6.52-3.76-17.62,1.13-35.25,2.26-52.89,2.84-3.85.13-8.3-1.18-11.58-3.25-14.79-9.31-29.31-19.06-43.82-28.81-2.58-1.73-4.36-1.86-7.03-.05-14.35,9.69-28.72,19.36-43.4,28.53-3.56,2.22-8.34,3.67-12.5,3.55-17.14-.5-34.27-1.63-51.39-2.78-3.98-.27-6.19.73-8.02,4.5-7.41,15.26-15.28,30.3-22.8,45.52-2.09,4.24-4.99,7.2-9.25,9.3-15.22,7.5-30.28,15.33-45.51,22.81-3.39,1.67-4.89,3.43-4.6,7.51,1.23,17.28,2.3,34.58,2.85,51.89.13,4.01-1.19,8.64-3.33,12.06-9.28,14.81-19.04,29.32-28.8,43.83-1.75,2.61-1.83,4.41-.04,7.06,9.13,13.52,17.8,27.36,27.13,40.74,4.28,6.14,5.65,12.33,5.07,19.67-1.26,16.1-1.83,32.26-2.87,48.38-.21,3.17.88,4.66,3.67,6.04,15.53,7.62,30.91,15.56,46.44,23.19,4.25,2.09,7.21,4.98,9.31,9.24,7.67,15.51,15.67,30.86,23.28,46.4,1.5,3.07,3.17,3.98,6.47,3.77,17.12-1.12,34.26-1.9,51.38-3.03,5.25-.35,9.65.92,14.03,3.89,14.19,9.63,28.63,18.88,42.85,28.47,2.65,1.79,4.44,1.74,7.04-.01,14.5-9.76,29.02-19.5,43.82-28.81,3.29-2.07,7.69-3.23,11.6-3.29,8.47-.13,16.96.73,25.45,1.19Z"></path><path class="cls-1" d="M96.77,255.87c.55-88.15,71.98-159.38,159.57-159.12,88.2.26,160.06,72.48,159.15,159.94-.92,88.2-72.11,159.01-159.46,158.65-88.13-.36-158.76-71.21-159.26-159.47ZM394.29,255.99c-.03-75.95-62.2-138.06-138.11-137.99-76.04.07-138.01,62.09-137.95,138.06.06,76.06,62.05,138.03,138.03,137.96,76.04-.06,138.06-62.09,138.03-138.04Z"></path><path class="cls-1" d="M238.29,279.23c23.22-21.91,47.86-45.27,72.68-68.44,2.41-2.25,5.72-4.04,8.91-4.8,4.24-1.01,7.75,1.26,9.97,5.04,2.25,3.83,1.95,7.67-.61,11.24-1.06,1.47-2.37,2.79-3.7,4.04-26.39,24.92-52.78,49.83-79.2,74.71-8.05,7.58-13.03,7.42-20.77-.53-12.9-13.23-25.79-26.47-38.66-39.73-1.5-1.54-2.99-3.17-4.11-4.98-2.6-4.2-1.79-9.39,1.75-12.78,3.56-3.4,8.68-3.97,12.84-1.19,1.78,1.19,3.27,2.81,4.86,4.27,11.88,10.92,23.75,21.85,36.04,33.17Z"></path></g></g></svg>