<svg xmlns="http://www.w3.org/2000/svg" id="Layer_1" viewBox="0 0 64 64"><defs><style>      .cls-1 {        fill: #00df81;      }    </style></defs><path class="cls-1" d="M64.09,13.21c0-.35-.03-.71-.11-1.05-.35-1.59-1.77-2.76-3.37-2.8-.66-.02-1.07.29-1.11.84-.04.56.3.94.94,1.04,1.19.19,1.72.76,1.73,1.91,0,8.77,0,17.54.01,26.31,0,.41-.11.53-.53.52-1.95-.02-3.89-.03-5.84,0-.57.01-.73-.13-.73-.71.02-9.12.01-18.25.01-27.37,0-.08.01-.17,0-.25-.05-.32.07-.44.41-.42.42.03.85.03,1.27-.01.56-.06.9-.46.88-.96-.01-.51-.36-.86-.93-.9-.36-.03-.72-.04-1.08,0-.45.04-.57-.12-.56-.55.02-1.87.01-3.75,0-5.62,0-.33,0-.66-.08-.99-.29-1.17-1.16-1.77-2.21-2.18H11.14c-1.78.61-2.4,1.88-2.32,3.67.08,1.73,0,3.46.03,5.19,0,.38-.1.5-.5.49-1.4-.02-2.79-.01-4.19,0-.42,0-.85,0-1.26.1-1.74.46-2.8,1.82-2.8,3.69,0,12.12,0,24.25,0,36.37,0,.31.04.63.1.93.3,1.44,1.54,2.71,2.97,2.77,2.2.1,4.4.05,6.6.04.51,0,.82-.32.87-.82.06-.54-.22-.88-.74-1.01-.2-.05-.42-.04-.63-.04-1.74,0-3.47,0-5.21,0-1.4,0-2.04-.64-2.05-2.04,0-2.31.01-4.62-.01-6.94,0-.44.12-.54.56-.54,19.68.01,39.37.01,59.05,0,.45,0,.56.12.55.55-.02,2.25-.01,4.5-.01,6.75,0,1.64-.59,2.22-2.25,2.22-15.03,0-30.06,0-45.08,0-.29,0-.59-.04-.88.07-.45.17-.69.5-.64.97.05.46.32.77.8.83.23.03.46.03.7.03,2.94,0,5.88,0,8.83,0,.4,0,.55.08.55.51-.03,1.35-.03,2.71,0,4.06,0,.41-.12.51-.53.55-2.19.22-4,2.07-4.15,4.21-.08,1.07.23,1.39,1.32,1.39,4.36,0,8.72,0,13.08,0,3.2,0,6.39,0,9.59,0,.89,0,1.24-.37,1.19-1.22-.14-2.32-1.86-4.12-4.25-4.39-.37-.04-.45-.18-.44-.5.01-1.31.04-2.63,0-3.94-.02-.56.14-.69.7-.68,6.41.02,12.83.02,19.24,0,.44,0,.9,0,1.32-.1,1.79-.42,2.84-1.83,2.84-3.78,0-12.06,0-24.12,0-36.19ZM8.22,39.99c-1.88-.03-3.77-.03-5.65,0-.45,0-.56-.12-.56-.56.01-8.75,0-17.49.01-26.24,0-1.3.68-1.95,2-1.95,1.42,0,2.84.02,4.25-.01.51-.01.57.16.57.6-.02,4.6,0,9.2,0,13.81s0,9.16.01,13.74c0,.5-.14.62-.63.61ZM19.29,14.92c.04.45.3.78.79.84.25.03.51.03.76.03,10.54,0,21.08,0,31.62-.01.59,0,.72.15.72.72-.02,7.6-.02,15.21,0,22.81,0,.55-.12.68-.69.68-6.84-.02-13.67-.01-20.51-.01s-13.72,0-20.57.01c-.51,0-.67-.09-.67-.63.02-7.65.02-15.29,0-22.94,0-.54.15-.65.67-.64,1.18.04,2.37.02,3.56,0,.75,0,1.18-.35,1.19-.92.02-.59-.44-.97-1.21-.98-1.25,0-2.5-.02-3.75,0-.36,0-.45-.1-.45-.45.01-3.46,0-6.92.01-10.37,0-.85.38-1.18,1.34-1.18,3.81,0,7.62,0,11.43,0,9.36,0,18.71,0,28.07,0,1.31,0,1.57.25,1.57,1.52,0,3.27-.01,6.54.01,9.81,0,.54-.11.68-.68.68-10.56-.02-21.12-.01-31.69-.01-.29,0-.59-.03-.88.08-.46.16-.69.5-.65.96ZM26.61,53.27c3.66.01,7.32.01,10.97,0,.39,0,.5.09.5.48-.02,1.37-.03,2.75,0,4.12,0,.4-.14.48-.51.47-1.84-.02-3.68,0-5.52,0s-3.64-.01-5.45,0c-.39,0-.5-.1-.5-.48.02-1.37.03-2.75,0-4.12,0-.41.14-.47.51-.47ZM42.57,62.05h-20.93c.4-1.11,1.37-1.79,2.58-1.81,1.78-.02,3.55,0,5.33,0,3.43,0,6.86,0,10.28,0,1.32,0,2.27.64,2.74,1.81Z"></path><path class="cls-1" d="M32.61,43.76c-1.58,0-2.91,1.3-2.92,2.86,0,1.56,1.31,2.87,2.89,2.88,1.59.01,2.92-1.26,2.94-2.83.02-1.6-1.3-2.92-2.92-2.92ZM32.64,47.6c-.53.02-1.02-.47-1.01-.99.01-.5.48-.95.99-.95.5,0,.97.46.98.96,0,.49-.45.96-.96.98Z"></path><path class="cls-1" d="M34.5,7.01c-2.58,0-5.16,0-7.74,0-.21,0-.43.02-.63-.02-.5-.09-.78-.4-.8-.9-.01-.5.27-.82.76-.93.18-.04.38-.03.57-.03,5.27,0,10.54,0,15.8,0,.19,0,.39-.01.57.03.49.11.77.43.76.93,0,.5-.29.81-.79.91-.2.04-.42.02-.63.02-2.62,0-5.25,0-7.87,0Z"></path><path class="cls-1" d="M43.29,29.6c-2.18,0-4.36,0-6.53,0-.28,0-.55,0-.81-.11-.39-.16-.59-.46-.58-.88,0-.42.22-.72.62-.85.26-.08.54-.09.81-.09,4.33,0,8.67,0,13,0,.04,0,.08,0,.13,0,.88.01,1.35.36,1.33.98-.02.61-.47.94-1.32.94-2.22,0-4.44,0-6.66,0Z"></path><path class="cls-1" d="M43.26,21.23c-2.16,0-4.31,0-6.47,0-.28,0-.55,0-.81-.09-.42-.16-.63-.48-.6-.92.02-.44.26-.74.71-.84.22-.05.46-.06.69-.06,4.36,0,8.71,0,13.07,0,.21,0,.42.01.63.04.48.07.75.37.79.84.04.5-.21.84-.71.96-.22.05-.46.07-.69.07-2.2,0-4.4,0-6.6,0Z"></path><path class="cls-1" d="M43.3,25.39c-2.18,0-4.35,0-6.53,0-.19,0-.38.01-.57-.02-.5-.08-.79-.37-.82-.87-.03-.51.25-.82.72-.96.12-.04.25-.04.38-.04,4.57,0,9.13,0,13.7,0,.67,0,1.1.4,1.09.96,0,.56-.43.92-1.12.93-2.28,0-4.57,0-6.85,0Z"></path><path class="cls-1" d="M43.31,33.76c-2.26,0-4.52,0-6.79,0-.46,0-.84-.11-1.06-.53-.29-.55.06-1.22.7-1.34.21-.04.42-.02.63-.02,4.35,0,8.71,0,13.06,0,.15,0,.3,0,.44,0,.59.05.98.43.97.95,0,.52-.4.92-.99.93-1.37.02-2.75,0-4.12,0-.95,0-1.9,0-2.85,0Z"></path><path class="cls-1" d="M30.01,11.08c-1.1,0-2.19,0-3.29,0-.23,0-.47-.02-.69-.07-.45-.1-.68-.41-.69-.85-.02-.47.2-.79.68-.93.12-.03.25-.07.37-.07,2.38,0,4.77-.01,7.15,0,.66,0,1.1.44,1.08.98-.02.52-.43.88-1.07.93-.15.01-.3,0-.44,0-1.03,0-2.07,0-3.1,0Z"></path><path class="cls-1" d="M39.64,36.04c1.01,0,2.03-.02,3.04,0,.77.02,1.17.42,1.11,1.05-.05.57-.46.86-1.25.86-1.69,0-3.38,0-5.07,0-.36,0-.72.02-1.08,0-.67-.05-1.03-.4-1.02-.96,0-.55.37-.92,1.04-.94,1.08-.03,2.15,0,3.23,0h0Z"></path><path class="cls-1" d="M32.94,19.88c0-1.07-.31-1.38-1.39-1.38-5.67,0-11.34,0-17,0-1.05,0-1.37.31-1.37,1.34,0,2.79,0,5.58,0,8.37s0,5.54,0,8.31c0,1.16.29,1.45,1.45,1.45,5.63,0,11.25,0,16.88,0,1.13,0,1.44-.3,1.44-1.4,0-5.56,0-11.12,0-16.67ZM30.5,36.05c-2.48-.02-4.95,0-7.43,0s-4.95-.01-7.43.01c-.45,0-.57-.13-.56-.56.03-1.27.03-2.54,0-3.81,0-.4.16-.58.5-.74,1.62-.75,3.07-.47,4.43.6.71.56,1.4,1.14,2.17,1.62,1.99,1.25,3.95,1.15,5.88-.1.75-.49,1.47-.97,2.44-.85.37.05.5.16.49.54-.03.94-.03,1.87,0,2.81.01.39-.1.49-.49.48ZM30.99,29.83c0,.36,0,.56-.5.49-1-.14-1.92.18-2.77.69-.32.2-.64.4-.96.61-1.18.75-2.37.71-3.51-.03-.97-.63-1.85-1.37-2.81-2.03-1.49-1.02-3.13-1.18-4.83-.65-.41.13-.54.12-.54-.36.02-2.54.02-5.08,0-7.62,0-.46.16-.54.58-.54,2.45.02,4.91,0,7.36,0,2.45,0,4.91.01,7.36,0,.45,0,.62.07.61.57-.03,2.95-.02,5.91,0,8.87Z"></path><path class="cls-1" d="M21.23,9.64c-.98-1.69-1.97-3.38-2.97-5.06-.51-.85-1.33-.87-1.83-.03-1.03,1.71-2.04,3.44-3.03,5.17-.49.85-.07,1.53.94,1.54.99.01,1.98,0,2.98,0,.99,0,1.98,0,2.98,0,1.06,0,1.48-.71.95-1.62ZM15.84,9.34c.49-.84.96-1.66,1.48-2.55.51.86.98,1.68,1.49,2.55h-2.98Z"></path><path class="cls-1" d="M25.62,22.54c-1.6-.02-2.94,1.29-2.96,2.88-.02,1.63,1.31,2.96,2.95,2.95,1.61,0,2.93-1.31,2.93-2.91,0-1.59-1.31-2.9-2.92-2.92ZM25.58,26.45c-.55-.01-1-.48-.99-1.02.01-.55.47-.98,1.03-.97.55.01,1.01.47,1,1-.01.53-.5.99-1.04.98Z"></path></svg>