<svg xmlns="http://www.w3.org/2000/svg" id="Layer_1" viewBox="0 0 64 64"><defs><style>      .cls-1 {        fill: #00df81;      }    </style></defs><path class="cls-1" d="M-.35.8C-.08.22.37,0,1.01,0c2.94.02,5.87,0,8.81.01.15,0,.34-.05.43.03.28.24.64.48.75.8.15.44-.12.82-.58.97-.23.08-.49.09-.74.09-2.69,0-5.37,0-8.11,0v39.34c.24,0,.46,0,.69,0,11.48,0,22.96,0,34.44.01.5,0,.77-.16,1.02-.6,2.22-3.93,4.46-7.84,6.7-11.76.7-1.22,1.42-1.36,2.54-.49,1.88,1.46,2.42,4.07,1.23,6.24-1.09,1.99-2.24,3.94-3.36,5.91-.11.19-.21.4-.34.65h17.26V1.91c-.27,0-.54,0-.8,0-15.29,0-30.58,0-45.87,0-.27,0-.55.01-.81-.05-.49-.12-.75-.47-.71-.97.04-.49.33-.81.85-.86.21-.02.42-.01.62-.01,15.67,0,31.33,0,47,0,1.37,0,1.63.27,1.63,1.66,0,13.29,0,26.58,0,39.86,0,1.3-.29,1.6-1.57,1.6-6.04,0-12.08,0-18.12-.01-.46,0-.71.13-.93.54-.43.82-.93,1.6-1.35,2.42-.11.21-.12.57-.01.78.46.89.98,1.74,1.52,2.67.26-.22.45-.37.63-.53,4.83-4.06,12.16-1.56,13.58,4.63.92,4.03-1.2,8.16-5,9.73-3.79,1.57-8.19.12-10.32-3.39-.44-.73-.41-1.28.11-1.6.52-.33,1.02-.13,1.47.59,1.97,3.15,5.94,4.09,9.02,2.14,3.2-2.03,4.04-6.36,1.82-9.44-2.24-3.12-6.58-3.65-9.49-1.17-.13.11-.25.22-.38.33-1.06.87-2.45.65-3.18-.53-.37-.6-.71-1.23-1.1-1.89-.42.74-.83,1.4-1.18,2.09-.09.17-.06.49.04.67.64,1.18,1.33,2.33,1.98,3.51.33.6.15,1.21-.38,1.44-.48.2-.93.02-1.25-.52-.54-.92-1.06-1.85-1.63-2.85-.14.2-.25.34-.33.5-1.28,2.24-2.5,4.52-3.86,6.71-1.82,2.93-4.53,4.32-7.93,4.02-3.25-.29-5.59-2.05-6.92-5.07-1.58-3.61-.45-7.76,2.7-10.16,3.07-2.34,7.31-2.24,10.31.22.21.17.41.34.72.6.3-.52.53-1.04.87-1.46.88-1.07.89-2.08,0-3.16-.42-.51-.57-1.37-1.07-1.66-.53-.3-1.33-.11-2.02-.11-9.75,0-19.5,0-29.25,0-.67,0-1.19-.14-1.49-.78V.8ZM35.38,48.51c-.34.59-.68,1.23-1.08,1.85-.72,1.1-2.07,1.31-3.1.49-.18-.14-.35-.3-.52-.45-1.45-1.18-3.12-1.67-4.96-1.42-3.1.42-5.4,2.94-5.66,6.13-.24,2.9,1.7,5.77,4.51,6.68,2.9.94,6.01-.25,7.61-2.93.44-.74.86-1.49,1.29-2.23,1.33-2.33,2.66-4.66,3.96-6.93-.68-.4-1.34-.78-2.05-1.19ZM40.42,44.47c.64-1.12,1.32-2.3,1.99-3.48,1.36-2.38,2.73-4.76,4.08-7.15.77-1.36.51-2.97-.6-3.74-2.52,4.41-5.04,8.82-7.52,13.17.7.41,1.34.78,2.05,1.2ZM37.87,47.68c.66.01,1.19-.51,1.19-1.18,0-.66-.53-1.21-1.17-1.21-.62,0-1.14.52-1.16,1.16-.02.67.49,1.21,1.14,1.23ZM34.64,43.17c.28.49.53.92.82,1.43.29-.54.52-.96.78-1.43h-1.6Z"></path><path class="cls-1" d="M44.84,21.57c.01,7.34-5.92,13.34-13.18,13.35-7.27,0-13.19-5.97-13.2-13.33-.01-7.34,5.91-13.34,13.18-13.34,7.28,0,13.19,5.96,13.2,13.32ZM20.33,21.58c0,6.31,5.09,11.45,11.33,11.44,6.21,0,11.27-5.11,11.3-11.41.03-6.3-5.05-11.46-11.3-11.47-6.25,0-11.33,5.12-11.33,11.43Z"></path><path class="cls-1" d="M49.23,59.68c-2.28,0-4.12-1.85-4.13-4.16,0-2.3,1.84-4.18,4.11-4.18,2.27,0,4.13,1.87,4.14,4.17,0,2.29-1.85,4.17-4.12,4.18ZM49.19,53.24c-1.24.01-2.24,1.06-2.22,2.32.02,1.27,1.04,2.26,2.3,2.23,1.22-.02,2.2-1.05,2.2-2.28,0-1.25-1.04-2.28-2.28-2.27Z"></path><path class="cls-1" d="M5.6,16.71c-.56,0-1.12.02-1.69,0-.71-.02-1.12-.44-1.13-1.15-.02-1.16-.02-2.31,0-3.47.01-.71.42-1.14,1.14-1.15,1.14-.02,2.29-.02,3.43,0,.71.01,1.12.43,1.14,1.15.03,1.16.03,2.31,0,3.47-.02.74-.45,1.14-1.21,1.15-.56.01-1.12,0-1.69,0ZM6.59,12.86h-1.9v1.92h1.9v-1.92Z"></path><path class="cls-1" d="M60.52,13.86c0,.55.01,1.09,0,1.64-.02.76-.41,1.19-1.15,1.2-1.14.02-2.29.02-3.43,0-.68-.01-1.11-.42-1.12-1.1-.03-1.18-.03-2.36,0-3.53.02-.72.44-1.13,1.15-1.14,1.14-.02,2.29-.02,3.43,0,.71.01,1.1.44,1.12,1.16.02.59,0,1.18,0,1.77ZM58.62,12.86h-1.9v1.91h1.9v-1.91Z"></path><path class="cls-1" d="M60.52,29.4c0,.55.01,1.09,0,1.64-.02.73-.4,1.16-1.11,1.18-1.16.03-2.33.03-3.5,0-.67-.02-1.09-.44-1.11-1.12-.03-1.18-.03-2.36,0-3.53.02-.71.45-1.11,1.17-1.11,1.12-.01,2.25-.01,3.37,0,.75,0,1.15.42,1.17,1.18.01.59,0,1.18,0,1.77ZM56.7,30.31h1.9v-1.92h-1.9v1.92Z"></path><path class="cls-1" d="M2.78,29.33c0-.57-.01-1.14,0-1.7.02-.75.42-1.16,1.18-1.17,1.12-.01,2.25-.01,3.37,0,.71,0,1.14.41,1.16,1.13.03,1.18.03,2.36,0,3.53-.02.68-.44,1.1-1.12,1.11-1.14.03-2.29.02-3.43,0-.75-.01-1.14-.44-1.16-1.2-.01-.57,0-1.14,0-1.7ZM6.59,30.32v-1.92h-1.89v1.92h1.89Z"></path><path class="cls-1" d="M5.59,39.98c-.54,0-1.08.01-1.62,0-.76-.02-1.17-.41-1.18-1.16-.02-1.16-.02-2.31,0-3.47.01-.69.4-1.11,1.09-1.13,1.18-.03,2.37-.03,3.56,0,.65.02,1.05.42,1.06,1.09.03,1.18.03,2.36,0,3.53-.02.72-.44,1.11-1.16,1.13-.58.02-1.16,0-1.75,0ZM4.68,38.03h1.91v-1.87h-1.91v1.87Z"></path><path class="cls-1" d="M60.53,37.12c0,.57.01,1.14,0,1.7-.02.72-.42,1.14-1.13,1.15-1.14.02-2.29.02-3.43,0-.72,0-1.13-.41-1.15-1.13-.03-1.16-.03-2.31,0-3.47.01-.73.42-1.14,1.13-1.15,1.14-.03,2.29-.03,3.43,0,.76.02,1.13.43,1.15,1.2.01.57,0,1.14,0,1.7ZM56.71,36.14v1.91h1.9v-1.91h-1.9Z"></path><path class="cls-1" d="M5.61,24.45c-.56,0-1.12.01-1.68,0-.73-.02-1.13-.41-1.14-1.13-.02-1.16-.02-2.31,0-3.47.01-.73.4-1.13,1.13-1.14,1.14-.02,2.29-.02,3.43,0,.73.01,1.13.4,1.15,1.13.03,1.16.03,2.31,0,3.47-.02.75-.43,1.13-1.2,1.15-.56.01-1.12,0-1.68,0ZM6.57,22.52v-1.88h-1.89v1.88h1.89Z"></path><path class="cls-1" d="M57.61,24.45c-.54,0-1.08.01-1.62,0-.73-.02-1.15-.4-1.17-1.11-.03-1.18-.03-2.36,0-3.53.02-.69.43-1.09,1.11-1.1,1.16-.02,2.33-.02,3.49,0,.71.01,1.1.43,1.11,1.17.01,1.14.02,2.27,0,3.41-.01.76-.41,1.15-1.17,1.17-.58.02-1.16,0-1.75,0ZM56.72,20.63v1.89h1.9v-1.89h-1.9Z"></path><path class="cls-1" d="M60.52,6.09c0,.57.01,1.14,0,1.7-.02.7-.39,1.11-1.08,1.13-1.18.03-2.37.03-3.56,0-.65-.02-1.05-.42-1.07-1.08-.03-1.18-.03-2.36,0-3.53.02-.72.43-1.12,1.15-1.13,1.14-.02,2.29-.02,3.43,0,.72.01,1.11.42,1.13,1.15.02.59,0,1.18,0,1.77ZM56.72,5.11v1.9h1.89v-1.9h-1.89Z"></path><path class="cls-1" d="M5.59,8.94c-.54,0-1.08.01-1.62,0-.8-.03-1.18-.42-1.19-1.22-.01-1.11-.01-2.23,0-3.34,0-.77.4-1.18,1.15-1.19,1.14-.02,2.29-.02,3.43,0,.68.01,1.11.4,1.13,1.08.03,1.18.03,2.36,0,3.53-.02.73-.42,1.09-1.15,1.14-.04,0-.08,0-.12,0-.54,0-1.08,0-1.62,0ZM4.67,6.99h1.9v-1.88h-1.9v1.88Z"></path><path class="cls-1" d="M30.7,55.58c-.04,2.34-1.92,4.15-4.25,4.1-2.22-.05-4.06-1.99-4-4.24.06-2.31,1.92-4.13,4.2-4.1,2.27.03,4.09,1.94,4.05,4.24ZM26.58,53.24c-1.24,0-2.27,1.05-2.26,2.29.01,1.23,1.01,2.24,2.22,2.26,1.26.01,2.27-.99,2.28-2.26,0-1.27-1-2.3-2.24-2.3Z"></path><path class="cls-1" d="M28.22,16.92v9.27c.27-.14.47-.27.69-.35.49-.19.92-.08,1.19.39.26.47.17.93-.27,1.22-.64.42-1.31.82-2,1.16-.65.33-1.32-.05-1.47-.77-.04-.18-.04-.38-.04-.56,0-3.81-.02-7.62.02-11.43,0-.41.19-.97.49-1.2.26-.2.88-.19,1.19,0,3.42,1.95,6.82,3.94,10.22,5.94.86.51.87,1.45.02,1.96-1.52.92-3.05,1.8-4.59,2.68-.54.31-1.09.18-1.36-.29-.29-.49-.12-1.03.47-1.37,1.11-.66,2.23-1.3,3.42-2-2.67-1.56-5.27-3.08-7.97-4.66Z"></path></svg>