<svg xmlns="http://www.w3.org/2000/svg" id="Layer_1" viewBox="0 0 64 64"><defs><style>      .cls-1 {        fill: #00df81;      }    </style></defs><path class="cls-1" d="M36.39,52.76c.14.81.23,1.53.4,2.22.8,3.11,2.5,5.39,5.24,6.69.14.07.35.11.41.24.19.38.47.82.42,1.19-.05.33-.48.61-.79.84-.14.1-.39.04-.59.04-7.06,0-14.12,0-21.17,0-.13,0-.27,0-.4,0-.52-.03-.9-.29-1.02-.87-.12-.6.12-1.02.61-1.31.82-.49,1.68-.93,2.41-1.55,2.17-1.88,3.14-4.45,3.46-7.48h-.86c-6.01,0-12.02-.08-18.02.03-3.09.06-5.45-2.5-5.43-5.96.07-11.78.03-23.57.03-35.35,0-3.66,2.07-5.92,5.43-5.92,15.41,0,30.82,0,46.24.01.55,0,.95-.15,1.34-.6,1.14-1.31,2.32-2.57,3.5-3.83,1.4-1.51,3.17-1.52,4.57-.02.65.7,1.3,1.4,1.94,2.12,1.28,1.46,1.28,3.38,0,4.83-.93,1.05-1.87,2.09-2.85,3.09-.39.4-.54.81-.54,1.39.02,11.49.01,22.99,0,34.48,0,2.87-1.55,5.05-3.99,5.62-.45.1-.93.11-1.4.11-6.01,0-12.02,0-18.03,0h-.91ZM51.36,8.07l-.12-.26h-.71c-14.65,0-29.3,0-43.95,0-2.33,0-3.45,1.21-3.45,3.75,0,11.74,0,23.47,0,35.21,0,2.53,1.13,3.76,3.46,3.76,16.19,0,32.38,0,48.57,0,2.38,0,3.49-1.2,3.49-3.79,0-10.59,0-21.18,0-31.77v-.94c-.3.32-.48.49-.65.68-5.7,6.22-11.4,12.44-17.11,18.64-.3.32-.71.63-1.11.72-1.88.43-3.77.79-5.66,1.14-1.02.19-1.55-.42-1.36-1.51.33-1.96.64-3.93,1.02-5.88.11-.53.37-1.1.72-1.49,5.41-5.95,10.85-11.86,16.28-17.78.17-.19.39-.33.58-.49ZM39.96,31.4c.17-.25.3-.52.49-.72,5.77-6.3,11.55-12.6,17.33-18.9,1.59-1.74,3.19-3.47,4.78-5.22.59-.65.59-1.17.02-1.83-.51-.58-1.04-1.14-1.56-1.71-.96-1.05-1.3-1.05-2.26,0-7.32,7.99-14.65,15.97-21.97,23.96-.15.17-.3.35-.43.5,1.17,1.27,2.3,2.51,3.6,3.93ZM23.62,61.63h14.56c-2.39-2.47-3.45-5.48-3.82-8.87-2.22,0-4.39,0-6.55.02-.15,0-.4.28-.43.46-.39,3.21-1.5,6.04-3.76,8.39ZM35.01,32.75c.91-.18,1.74-.34,2.54-.5-.69-.77-1.35-1.5-2.06-2.29-.15.89-.31,1.78-.48,2.79Z"></path><path class="cls-1" d="M16.8,30.49c-.14-1.62-.12-3.27-.46-4.84-.78-3.61-3.84-6.23-7.23-6.4-.89-.05-1.79-.01-2.68-.03-.81-.01-1.3-.45-1.29-1.14,0-.69.49-1.12,1.31-1.12,1.72,0,3.44-.09,5.11.48,4.23,1.43,7.11,5.6,7.18,10.5.03,1.8,0,3.6,0,5.4.02,3,1.84,5.05,4.59,5.12.77.02,1.58,0,2.32-.18,1.82-.46,3.08-2.08,3.33-4.1.03-.24.04-.48.08-.73.09-.66.53-1.07,1.09-1.02.56.05.95.52.93,1.2-.04,2.05-.76,3.78-2.12,5.18-1.82,1.86-4.05,2.15-6.38,1.85-3.5-.45-5.84-3.36-5.92-7.24-.02-.97,0-1.95,0-2.92.04,0,.08,0,.13-.01Z"></path></svg>